<svg width="82" height="82" viewBox="0 0 82 82" fill="none" xmlns="http://www.w3.org/2000/svg">
<path d="M41 0C18.368 0 0 18.368 0 41C0 63.632 18.368 82 41 82C63.632 82 82 63.632 82 41C82 18.368 63.632 0 41 0ZM41 16.4C48.913 16.4 55.35 22.837 55.35 30.75C55.35 38.663 48.913 45.1 41 45.1C33.087 45.1 26.65 38.663 26.65 30.75C26.65 22.837 33.087 16.4 41 16.4ZM41 73.8C32.677 73.8 22.837 70.438 15.826 61.992C22.755 56.58 31.488 53.3 41 53.3C50.512 53.3 59.245 56.58 66.174 61.992C59.163 70.438 49.323 73.8 41 73.8Z" fill="black"/>
</svg>
